<?xml version="1.0" encoding="UTF-8"?>
<svg id="Calque_2" data-name="Calque 2" xmlns="http://www.w3.org/2000/svg" viewBox="0 0 166.72 161.83">
  <defs>
    <style>
      .cls-1 {
        fill: #fff;
      }
    </style>
  </defs>
  <g id="Calque_1-2" data-name="Calque 1">
    <g>
      <path class="cls-1" d="M76.04,117.41c-7.64-1.1-14.86-2.14-22.82-3.28,8-1.16,15.3-2.22,22.79-3.3-2.22-6.1-4.37-11.99-6.52-17.88,.15-.08,.3-.16,.45-.24,3.19,4.69,6.37,9.37,9.56,14.06,.17-.02,.35-.04,.52-.06,.99-34.12,1.98-68.23,2.98-102.35,.11,0,.23,0,.34,0,.86,34.08,1.72,68.16,2.58,102.24,.19,.09,.37,.17,.56,.26,3.21-4.72,6.43-9.44,9.64-14.17,.15,.07,.3,.14,.45,.21-2.14,5.88-4.28,11.75-6.53,17.92,7.5,1.09,14.83,2.15,22.77,3.3-7.91,1.14-15.21,2.19-22.76,3.28,2.59,5.15,5.06,10.08,7.58,15.1-3.58-3.49-7.03-6.85-10.48-10.22-.27,.09-.55,.18-.82,.26,.26,10.29,.52,20.57,.79,31.5,2.92-1.71,5.69-3.09,8.2-4.84,8.97-6.26,16.75-13.73,21.59-23.69,5.96-12.24,7.45-25.12,3.61-38.27-1.74-5.95-4.26-11.68-6.59-17.44-.57-1.42-.54-2.33,.44-3.53,6.94-8.43,12.22-17.84,15.41-28.26,2.75-9.01,3.17-18.25-.95-27-1.7-3.6-4.62-6.62-6.99-9.9-.27-.37-.62-.67-.76-1.13,14.79,11.53,25.67,25.63,29.72,44.44,4.12,19.08-1.76,35.99-10.75,52.36,7.68-8.03,13.54-17.02,17.04-27.64,3.59-10.91,3.41-21.49-1.27-32.49,4.53,5.74,8.71,18.66,9.6,28.52,.91,10.01,.71,19.87-2.56,29.54-3.26,9.62-8.39,18.19-14.18,26.43,8.72-6.78,13.03-16.52,17.31-26.27,.24,.09,.49,.17,.73,.26-1.22,4.59-2.04,9.34-3.73,13.75-6.58,17.21-16.81,31.61-32.91,41.3-8.07,4.86-16.87,7.71-26.07,9.49-18.15,3.51-36.15,2.83-53.62-3.12-19.14-6.51-33.46-18.98-42.48-37.28-3.8-7.71-6.78-15.67-7.92-24.28,4.47,9.37,8.87,18.79,17.2,25.77C-2.85,93.75-5.4,65.43,10.62,35.72c-10.4,24.25,.19,43.25,15.32,61.22C4.75,60.13,11.9,28.55,42.77,1.3c.26,.1,.52,.2,.78,.3-.59,.7-1.15,1.43-1.76,2.11-5.83,6.52-7.8,14.33-7.36,22.83,.79,15.48,8.15,28.15,17.51,39.88,.99,1.24,1.14,2.05,.44,3.44-3.99,7.98-7.38,16.22-8.42,25.14-1.74,14.89,2.05,28.27,11.6,39.97,5.9,7.23,12.61,13.44,21,17.68,.59,.3,1.17,.63,1.77,.91,.13,.06,.31,0,.9,0v-31.24c-3.66,3.85-7.22,7.6-10.78,11.35-.12-.08-.24-.16-.37-.23,2.6-5.24,5.2-10.48,7.95-16.05Z"/>
      <path class="cls-1" d="M76.04,117.41c-7.64-1.1-14.86-2.14-22.82-3.28,8-1.16,15.3-2.22,22.79-3.3-2.22-6.1-4.37-11.99-6.52-17.88,.15-.08,.3-.16,.45-.24,3.19,4.69,6.37,9.37,9.56,14.06,.17-.02,.35-.04,.52-.06,.99-34.12,1.98-68.23,2.98-102.35,.11,0,.23,0,.34,0,.86,34.08,1.72,68.16,2.58,102.24,.19,.09,.37,.17,.56,.26,3.21-4.72,6.43-9.44,9.64-14.17,.15,.07,.3,.14,.45,.21-2.14,5.88-4.28,11.75-6.53,17.92,7.5,1.09,14.83,2.15,22.77,3.3-7.91,1.14-15.21,2.19-22.76,3.28,2.59,5.15,5.06,10.08,7.58,15.1-3.58-3.49-7.03-6.85-10.48-10.22-.27,.09-.55,.18-.82,.26,.26,10.29,.52,20.57,.79,31.5,2.92-1.71,5.69-3.09,8.2-4.84,8.97-6.26,16.75-13.73,21.59-23.69,5.96-12.24,7.45-25.12,3.61-38.27-1.74-5.95-4.26-11.68-6.59-17.44-.57-1.42-.54-2.33,.44-3.53,6.94-8.43,12.22-17.84,15.41-28.26,2.75-9.01,3.17-18.25-.95-27-1.7-3.6-4.62-6.62-6.99-9.9-.27-.37-.62-.67-.76-1.13,14.79,11.53,25.67,25.63,29.72,44.44,4.12,19.08-1.76,35.99-10.75,52.36,7.68-8.03,13.54-17.02,17.04-27.64,3.59-10.91,3.41-21.49-1.27-32.49,4.53,5.74,8.71,18.66,9.6,28.52,.91,10.01,.71,19.87-2.56,29.54-3.26,9.62-8.39,18.19-14.18,26.43,8.72-6.78,13.03-16.52,17.31-26.27,.24,.09,.49,.17,.73,.26-1.22,4.59-2.04,9.34-3.73,13.75-6.58,17.21-16.81,31.61-32.91,41.3-8.07,4.86-16.87,7.71-26.07,9.49-18.15,3.51-36.15,2.83-53.62-3.12-19.14-6.51-33.46-18.98-42.48-37.28-3.8-7.71-6.78-15.67-7.92-24.28,4.47,9.37,8.87,18.79,17.2,25.77C-2.85,93.75-5.4,65.43,10.62,35.72c-10.4,24.25,.19,43.25,15.32,61.22C4.75,60.13,11.9,28.55,42.77,1.3c.26,.1,.52,.2,.78,.3-.59,.7-1.15,1.43-1.76,2.11-5.83,6.52-7.8,14.33-7.36,22.83,.79,15.48,8.15,28.15,17.51,39.88,.99,1.24,1.14,2.05,.44,3.44-3.99,7.98-7.38,16.22-8.42,25.14-1.74,14.89,2.05,28.27,11.6,39.97,5.9,7.23,12.61,13.44,21,17.68,.59,.3,1.17,.63,1.77,.91,.13,.06,.31,0,.9,0v-31.24c-3.66,3.85-7.22,7.6-10.78,11.35-.12-.08-.24-.16-.37-.23,2.6-5.24,5.2-10.48,7.95-16.05Z"/>
    </g>
  </g>
</svg>