<?xml version="1.0" encoding="UTF-8"?>
<svg id="Calque_2" data-name="Calque 2" xmlns="http://www.w3.org/2000/svg" viewBox="0 0 191.24 191.27">
  <defs>
    <style>
      .cls-1 {
        fill: #fff;
      }
    </style>
  </defs>
  <g id="Calque_1-2" data-name="Calque 1">
    <g>
      <g>
        <path class="cls-1" d="M142.95,143.7c-4.79,4.84-9.74,9.52-14.32,14.54-5.97,6.54-13.27,9.3-22,9.11-7.73-.17-15.46-.12-23.2-.01-7.82,.11-14.42-2.5-19.87-8.16-4.5-4.67-9.15-9.19-13.74-13.77-.56-.56-1.17-1.08-2.16-1.98,0,1.39,0,2.27,0,3.15,0,12.3,0,24.61,0,36.91,0,5.83-1.94,7.77-7.76,7.77-10.81,.01-21.62,0-32.42,.01-2.69,0-5.23-.37-6.68-2.96-1.48-2.63-.68-5.09,.79-7.5,4.31-7.11,8.48-14.29,12.86-21.35,2.41-3.88,3.47-7.94,3.44-12.51-.11-18.54-.13-37.08,.04-55.62,.03-3.15,.72-6.5,1.96-9.39,3.25-7.58,9.83-10.25,17.56-10.28,29.76-.08,59.53-.03,89.29-.03,9.23,0,18.46-.05,27.69,.02,9.26,.07,15.98,5.1,18.21,13.65,.52,1.98,.73,4.1,.74,6.15,.05,18.54,.09,37.08-.01,55.62-.02,4.48,1.02,8.47,3.38,12.27,4.42,7.13,8.64,14.39,12.99,21.56,1.42,2.34,2.17,4.73,.8,7.29-1.41,2.61-3.92,3.07-6.62,3.07-10.97-.01-21.95,0-32.92-.01-5.26,0-7.38-2.14-7.39-7.44-.02-12.39,0-24.77,0-37.16v-2.68c-.21-.09-.42-.18-.62-.28Zm-47.42-36.14c5.9,0,11.79,.06,17.69-.02,4.04-.05,6.42-2.41,6.38-6.08-.04-3.49-2.47-5.94-6.28-5.96-11.79-.07-23.58-.11-35.37,.07-1.62,.02-3.52,1-4.77,2.11-1.9,1.7-1.96,4.13-.94,6.45,1.11,2.52,3.29,3.39,5.86,3.4,5.81,.03,11.62,.01,17.44,0Zm.01,23.95c5.9,0,11.79,.06,17.69-.02,4.04-.06,6.42-2.43,6.37-6.09-.05-3.49-2.48-5.92-6.3-5.94-11.79-.06-23.58-.1-35.37,.07-1.62,.02-3.52,1-4.76,2.12-1.89,1.71-1.95,4.14-.93,6.46,1.11,2.53,3.3,3.38,5.87,3.39,5.81,.03,11.62,0,17.44,0Z"/>
        <path class="cls-1" d="M143.02,59.42H47.97c-1.09-16.31,.73-31.73,12.36-44.28C68.68,6.11,79.16,1.2,91.44,.19c14.07-1.15,26.5,2.87,36.88,12.38,8.79,8.05,13.69,18.31,14.62,30.21,.43,5.44,.07,10.93,.07,16.65Zm-47.36-23.54c.11-6.95-4.77-12.06-11.67-12.23-7.05-.17-12.26,4.79-12.36,11.79-.1,6.95,4.77,12.07,11.67,12.23,7.05,.17,12.25-4.79,12.36-11.79Zm11.9,5.81c.03,3.36,2.61,5.93,6,5.97,3.47,.04,6.12-2.66,6.03-6.14-.08-3.34-2.78-5.95-6.08-5.89-3.32,.07-5.98,2.78-5.95,6.06Z"/>
      </g>
      <g>
        <path class="cls-1" d="M142.95,143.7c-4.79,4.84-9.74,9.52-14.32,14.54-5.97,6.54-13.27,9.3-22,9.11-7.73-.17-15.46-.12-23.2-.01-7.82,.11-14.42-2.5-19.87-8.16-4.5-4.67-9.15-9.19-13.74-13.77-.56-.56-1.17-1.08-2.16-1.98,0,1.39,0,2.27,0,3.15,0,12.3,0,24.61,0,36.91,0,5.83-1.94,7.77-7.76,7.77-10.81,.01-21.62,0-32.42,.01-2.69,0-5.23-.37-6.68-2.96-1.48-2.63-.68-5.09,.79-7.5,4.31-7.11,8.48-14.29,12.86-21.35,2.41-3.88,3.47-7.94,3.44-12.51-.11-18.54-.13-37.08,.04-55.62,.03-3.15,.72-6.5,1.96-9.39,3.25-7.58,9.83-10.25,17.56-10.28,29.76-.08,59.53-.03,89.29-.03,9.23,0,18.46-.05,27.69,.02,9.26,.07,15.98,5.1,18.21,13.65,.52,1.98,.73,4.1,.74,6.15,.05,18.54,.09,37.08-.01,55.62-.02,4.48,1.02,8.47,3.38,12.27,4.42,7.13,8.64,14.39,12.99,21.56,1.42,2.34,2.17,4.73,.8,7.29-1.41,2.61-3.92,3.07-6.62,3.07-10.97-.01-21.95,0-32.92-.01-5.26,0-7.38-2.14-7.39-7.44-.02-12.39,0-24.77,0-37.16v-2.68c-.21-.09-.42-.18-.62-.28Zm-47.42-36.14c5.9,0,11.79,.06,17.69-.02,4.04-.05,6.42-2.41,6.38-6.08-.04-3.49-2.47-5.94-6.28-5.96-11.79-.07-23.58-.11-35.37,.07-1.62,.02-3.52,1-4.77,2.11-1.9,1.7-1.96,4.13-.94,6.45,1.11,2.52,3.29,3.39,5.86,3.4,5.81,.03,11.62,.01,17.44,0Zm.01,23.95c5.9,0,11.79,.06,17.69-.02,4.04-.06,6.42-2.43,6.37-6.09-.05-3.49-2.48-5.92-6.3-5.94-11.79-.06-23.58-.1-35.37,.07-1.62,.02-3.52,1-4.76,2.12-1.89,1.71-1.95,4.14-.93,6.46,1.11,2.53,3.3,3.38,5.87,3.39,5.81,.03,11.62,0,17.44,0Z"/>
        <path class="cls-1" d="M143.02,59.42H47.97c-1.09-16.31,.73-31.73,12.36-44.28C68.68,6.11,79.16,1.2,91.44,.19c14.07-1.15,26.5,2.87,36.88,12.38,8.79,8.05,13.69,18.31,14.62,30.21,.43,5.44,.07,10.93,.07,16.65Zm-47.36-23.54c.11-6.95-4.77-12.06-11.67-12.23-7.05-.17-12.26,4.79-12.36,11.79-.1,6.95,4.77,12.07,11.67,12.23,7.05,.17,12.25-4.79,12.36-11.79Zm11.9,5.81c.03,3.36,2.61,5.93,6,5.97,3.47,.04,6.12-2.66,6.03-6.14-.08-3.34-2.78-5.95-6.08-5.89-3.32,.07-5.98,2.78-5.95,6.06Z"/>
      </g>
    </g>
  </g>
</svg>