<?xml version="1.0" encoding="UTF-8"?>
<svg id="Calque_2" data-name="Calque 2" xmlns="http://www.w3.org/2000/svg" viewBox="0 0 215.85 167.84">
  <defs>
    <style>
      .cls-1 {
        fill: #ffe91d;
      }
    </style>
  </defs>
  <g id="Calque_1-2" data-name="Calque 1">
    <g>
      <path class="cls-1" d="M177.29,140.99c3.35,5.61,3.17,11.31,.39,16.95-3.35,6.79-9.3,9.59-16.48,9.77-9.49,.23-18.99,.12-28.49,.03-3.97-.04-7.46-1.38-10.15-4.54-.43-.51-1.63-.8-2.3-.61-10.13,2.92-20.45,4.5-30.97,4.95-17.42,.75-33.66-3.02-48.7-12.01C20.13,143.29,7.53,125.24,2.24,102.37-2.78,80.65,.7,59.89,12.17,40.6,24.34,20.12,42.48,7.8,65.26,2.14,75.42-.38,85.85-.33,96.3,.54c18.48,1.53,35.35,8.41,52.31,15.09,19.36,7.62,38.77,15.12,58.16,22.68,6.37,2.48,9.04,6.37,9.06,13.14,.02,4.25,.01,8.5,0,12.75-.02,5.56-1.98,7.56-7.49,7.56-14.83,.02-29.66,0-44.49,0-6.09,0-8.02,1.96-8.02,8.13,0,2.92-.02,5.83,0,8.75,.04,5.14,2.14,7.25,7.35,7.25,14.83,.02,29.66,0,44.49,0,6.3,0,8.16,1.87,8.16,8.2,0,4.17,.03,8.33,0,12.5-.06,6.31-2.83,10.34-8.71,12.63-9.69,3.77-19.4,7.5-29.1,11.25-.15,.06-.27,.19-.73,.52ZM83.92,53.78c-16.8-.02-29.92,13.02-30.07,29.9-.15,16.82,13.13,30.18,30.03,30.2,16.79,.02,29.92-13.03,30.07-29.9,.15-16.83-13.12-30.17-30.03-30.2Zm-35.99-6.02c-.05-3.34-2.73-5.99-6.04-5.96-3.32,.03-6.02,2.73-6.03,6.02,0,3.44,2.77,6.14,6.21,6.05,3.4-.09,5.9-2.69,5.86-6.1Zm-18.08,30.04c-3.32,.06-6,2.78-5.98,6.07,.02,3.45,2.8,6.12,6.25,6,3.41-.12,5.89-2.74,5.81-6.15-.08-3.35-2.78-5.98-6.08-5.92Zm12.19,48.07c3.4-.07,5.91-2.65,5.89-6.07-.02-3.35-2.68-6.01-6-6-3.4,0-6.19,2.87-6.06,6.23,.12,3.35,2.82,5.9,6.17,5.83Z"/>
      <path class="cls-1" d="M83.8,101.73c-10.7-.94-17.74-7.5-17.61-17.99,.13-10.98,7.53-17.69,17.81-17.61,11.06,.09,17.69,7.7,17.61,17.82-.08,10.75-7.44,17.08-17.82,17.79Z"/>
    </g>
  </g>
</svg>