<?xml version="1.0" encoding="UTF-8"?>
<svg id="Calque_2" data-name="Calque 2" xmlns="http://www.w3.org/2000/svg" viewBox="0 0 167.31 191.47">
  <defs>
    <style>
      .cls-1 {
        fill: #fff;
      }
    </style>
  </defs>
  <g id="Calque_1-2" data-name="Calque 1">
    <g>
      <g>
        <path class="cls-1" d="M35.82,12v14.17c1.15-1.51,1.92-2.52,2.68-3.52,6.93-9.08,15.62-16.01,26.52-19.43C85.4-3.16,104.27-.11,120.77,13.95c11.09,9.46,17.51,21.71,19.11,36.12,1.35,12.12,1.79,24.35,2.6,36.53,.24,3.56,.48,7.13,.5,10.7,.03,6.11-3.98,11.84-9.97,13.36-7.71,1.96-15.57,3.36-23.37,4.96-5.69,1.17-11.37,2.41-17.09,3.38-7.79,1.33-15.51,.63-23.22-1.04-10.46-2.26-20.96-4.31-31.48-6.27-9.52-1.78-13.72-7.31-13.83-16.48-.35-29.42-.15-58.85-.12-88.27,0-4.62,2.32-6.86,6.92-6.93,1.91-.03,3.84-.1,5.72,.18,3.22,.48,4.94,2.47,5.11,5.49,.17,2.91-1.46,4.97-4.6,5.84-.39,.11-.77,.29-1.22,.46ZM120.43,44.82c-4.35-15.5-18.89-27.16-37.42-26.82-19.28,.36-32.44,13.06-36.05,26.82H120.43Zm-27.73,55.91c3.68,.02,3.79,.02,4.4-3.25,2.65-14.3,11.57-24.1,23.01-32.06,3.23-2.25,3.7-3.08,2.5-7.14-9.96,1.97-19.92,3.93-29.91,5.91v36.54ZM45.04,58.27c-1.37,4.78-1.22,4.71,2.63,7.43,11.3,7.97,20.06,17.87,22.88,31.91,.49,2.42,1.49,3.54,4.03,3.12v-36.56c-9.94-1.98-19.74-3.94-29.54-5.9Z"/>
        <path class="cls-1" d="M83.7,191.46c-24.18,0-48.36,0-72.54,0-6.69,0-10.39-2.98-11.07-9.26-.27-2.52,.09-5.15,.46-7.69,1.52-10.49,5.8-19.72,13.21-27.34,8.59-8.85,18.99-14.61,31.39-14.9,24.16-.55,48.34-.56,72.52-.47,13.4,.05,25.22,4.74,34.83,14.25,8.51,8.42,13.42,18.64,14.46,30.63,.16,1.9,.52,3.85,.26,5.7-.86,6.14-4.37,9.05-10.73,9.08-10.3,.04-20.61,.01-30.91,.01-13.96,0-27.92,0-41.88,0Zm-.1-17.84c5.81,0,11.63,.05,17.44-.05,.93-.02,1.85-.72,2.77-1.11-.42-.93-.58-2.18-1.29-2.73-5.52-4.26-11.08-8.48-16.8-12.47-.94-.66-3.1-.69-4.05-.05-5.69,3.87-11.24,7.96-16.72,12.15-.8,.61-.94,2.1-1.38,3.19,.94,.36,1.88,1.01,2.83,1.02,5.73,.1,11.46,.05,17.19,.05Z"/>
      </g>
      <g>
        <path class="cls-1" d="M35.82,12v14.17c1.15-1.51,1.92-2.52,2.68-3.52,6.93-9.08,15.62-16.01,26.52-19.43C85.4-3.16,104.27-.11,120.77,13.95c11.09,9.46,17.51,21.71,19.11,36.12,1.35,12.12,1.79,24.35,2.6,36.53,.24,3.56,.48,7.13,.5,10.7,.03,6.11-3.98,11.84-9.97,13.36-7.71,1.96-15.57,3.36-23.37,4.96-5.69,1.17-11.37,2.41-17.09,3.38-7.79,1.33-15.51,.63-23.22-1.04-10.46-2.26-20.96-4.31-31.48-6.27-9.52-1.78-13.72-7.31-13.83-16.48-.35-29.42-.15-58.85-.12-88.27,0-4.62,2.32-6.86,6.92-6.93,1.91-.03,3.84-.1,5.72,.18,3.22,.48,4.94,2.47,5.11,5.49,.17,2.91-1.46,4.97-4.6,5.84-.39,.11-.77,.29-1.22,.46ZM120.43,44.82c-4.35-15.5-18.89-27.16-37.42-26.82-19.28,.36-32.44,13.06-36.05,26.82H120.43Zm-27.73,55.91c3.68,.02,3.79,.02,4.4-3.25,2.65-14.3,11.57-24.1,23.01-32.06,3.23-2.25,3.7-3.08,2.5-7.14-9.96,1.97-19.92,3.93-29.91,5.91v36.54ZM45.04,58.27c-1.37,4.78-1.22,4.71,2.63,7.43,11.3,7.97,20.06,17.87,22.88,31.91,.49,2.42,1.49,3.54,4.03,3.12v-36.56c-9.94-1.98-19.74-3.94-29.54-5.9Z"/>
        <path class="cls-1" d="M83.7,191.46c-24.18,0-48.36,0-72.54,0-6.69,0-10.39-2.98-11.07-9.26-.27-2.52,.09-5.15,.46-7.69,1.52-10.49,5.8-19.72,13.21-27.34,8.59-8.85,18.99-14.61,31.39-14.9,24.16-.55,48.34-.56,72.52-.47,13.4,.05,25.22,4.74,34.83,14.25,8.51,8.42,13.42,18.64,14.46,30.63,.16,1.9,.52,3.85,.26,5.7-.86,6.14-4.37,9.05-10.73,9.08-10.3,.04-20.61,.01-30.91,.01-13.96,0-27.92,0-41.88,0Zm-.1-17.84c5.81,0,11.63,.05,17.44-.05,.93-.02,1.85-.72,2.77-1.11-.42-.93-.58-2.18-1.29-2.73-5.52-4.26-11.08-8.48-16.8-12.47-.94-.66-3.1-.69-4.05-.05-5.69,3.87-11.24,7.96-16.72,12.15-.8,.61-.94,2.1-1.38,3.19,.94,.36,1.88,1.01,2.83,1.02,5.73,.1,11.46,.05,17.19,.05Z"/>
      </g>
    </g>
  </g>
</svg>