<?xml version="1.0" encoding="UTF-8"?>
<svg id="Calque_2" data-name="Calque 2" xmlns="http://www.w3.org/2000/svg" viewBox="0 0 167.1 191.19">
  <g id="Calque_1-2" data-name="Calque 1">
    <g>
      <path d="M83.39,191.17c-23.59,0-47.19,.02-70.78,0-8.36,0-12.94-4.83-12.58-13.16,.1-2.24,.25-4.48,.56-6.7,2.18-15.17,9.04-27.84,20.74-37.74,9.67-8.18,20.98-13.05,33.58-13.54,17.42-.67,34.88-.71,52.31-.46,14.99,.22,28.52,5.08,39.85,15.2,11.31,10.1,17.71,22.81,19.51,37.84,.23,1.9,.41,3.8,.5,5.71,.37,7.72-4.36,12.77-12.16,12.85-7.64,.08-15.29,.02-22.93,.02-16.2,0-32.4,0-48.6,0Z"/>
      <path d="M38.67,69.58c-5.48,2.36-10.75,2.73-15.74-.45-4.7-2.99-7.94-7.06-7.98-12.98-.03-5.73-.19-11.47,.03-17.2,.45-11.52,12.82-18.69,23.2-13.56,.74,.36,1.46,.76,2.4,1.25C49.54,9.1,64.32,0,83.48,0c19.18,0,33.97,9.1,42.78,26.33,2.7-.84,5.08-1.87,7.56-2.3,9-1.52,17.75,5.35,18.21,14.43,.3,5.8,.33,11.64,.05,17.44-.56,11.48-11.57,18.4-22.32,14.23-.39-.15-.78-.29-1.33-.49-8.36,19.96-23.31,31.52-44.95,31.48-21.49-.05-36.57-11.28-44.83-31.53Zm15.1-28.16c0,5.11-.3,9.91,.05,14.65,1.54,20.85,21.85,32.33,40.77,25.35,16.77-6.19,21.44-24.26,18.16-39.1-5.58-1-11.02-1.6-16.24-3.02-5.42-1.47-9.46-5.31-13.02-9.8-7.3,9.73-17.39,12.62-29.72,11.92Z"/>
    </g>
  </g>
</svg>