<?xml version="1.0" encoding="UTF-8"?>
<svg id="Calque_2" data-name="Calque 2" xmlns="http://www.w3.org/2000/svg" viewBox="0 0 239.16 191.45">
  <defs>
    <style>
      .cls-1 {
        fill: #fff;
      }

      .cls-2 {
        fill: #ffe91d;
      }
    </style>
  </defs>
  <g id="Calque_1-2" data-name="Calque 1">
    <g>
      <g>
        <path class="cls-1" d="M143.45,134.41c0,12.38,0,24.77,0,37.15,0,6.03-1.88,7.94-7.84,7.95-10.73,0-21.45,0-32.18,0-5.76,0-7.78-2.03-7.79-7.8,0-24.77-.21-49.53,.12-74.3,.11-7.76,1.65-15.5,2.59-23.24,1.72-14.09,3.5-28.17,5.24-42.26,1.05-8.49,2.04-16.98,3.13-25.46C107.29,2.07,109.68,.06,114.12,.02c3.66-.03,7.32-.04,10.97,0,4.39,.05,6.68,1.95,7.23,6.28,1.76,13.83,3.43,27.68,5.14,41.52,1.9,15.41,3.81,30.81,5.7,46.22,.15,1.23,.26,2.48,.26,3.72,.02,12.22,.01,24.43,.01,36.65Zm-35.92-30.29s-.01,0-.02,0c0,2.99-.04,5.99,.01,8.98,.08,4.4,2.23,6.56,6.65,6.64,3.58,.06,7.15,.06,10.73,0,4.46-.07,6.6-2.14,6.66-6.58,.07-5.9,.11-11.81-.02-17.71-.16-6.97-5.1-11.7-11.96-11.72-6.86-.01-11.78,4.72-12.03,11.66-.1,2.91-.02,5.82-.02,8.73Z"/>
        <path class="cls-1" d="M47.73,131.56c0-3.93-.08-7.66,.02-11.39,.18-7.15,3.93-11.57,10.89-12.19,4.62-.41,9.33-.42,13.95-.01,7.16,.63,10.91,5.15,10.95,12.65,.06,11.14,.02,22.28,.02,33.43,0,8.23,.05,16.46-.02,24.69-.05,6.64-3.48,11.23-9.05,12.33-8.14,1.6-14.29-3.21-14.75-11.56-.06-1.16,0-2.32,0-3.72-10.92-3.24-21.79-6.45-32.8-9.72-.27,1.3-.47,2.5-.76,3.68-.96,4-4.5,6.77-8.54,6.7-4.1-.07-7.5-2.82-8.35-6.9-.3-1.45-.46-2.95-.46-4.43-.03-33.01-.02-66.02-.02-99.03,0-.99,0-1.99,0-3.19-.73-.21-1.41-.42-2.1-.59C1.7,61.09,.01,57.68,0,53.86c-.01-3.75,1.61-7.35,6.67-8.41,1.83-.38,2.18-1.14,2.17-2.82-.01-2.89,0-5.83,.47-8.67,.67-4.12,4.15-6.84,8.28-6.94,4.13-.1,7.71,2.7,8.58,6.92,.36,1.77,.39,3.62,.47,5.43,.07,1.74,.02,3.48,.02,5.49,5.39,.73,8.94,3.69,8.8,9.23-.13,5.17-3.47,8.05-8.69,8.62v68.84h20.97Z"/>
        <path class="cls-1" d="M230.29,62.93c0,1.04,0,2.03,0,3.02,0,33.25,0,66.49,0,99.74,0,3.79-.72,7.37-4.39,9.4-5.64,3.13-11.7,.34-13.05-5.9-.21-.96-.41-1.93-.66-3.15-10.91,3.23-21.77,6.44-32.58,9.63-.22,2.29-.29,4.45-.64,6.56-.89,5.37-5.61,9.13-11.4,9.22-5.65,.08-10.57-3.71-11.58-9.01-.26-1.38-.42-2.8-.42-4.2-.03-19.12-.03-38.23,0-57.35,0-6.43,2.63-10.59,7.77-12.31,1.32-.44,2.76-.71,4.15-.75,3.99-.1,7.99-.18,11.97,0,7.42,.33,11.71,4.81,11.91,12.3,.1,3.73,.02,7.47,.02,11.4h20.88V62.72c-5.14-.57-8.55-3.49-8.6-8.77-.05-5.4,3.38-8.39,8.8-9.02,0-2.88-.14-5.54,.03-8.18,.43-6.82,3.76-9.58,8.91-9.57,5.01,0,8.46,2.6,8.89,9.6,.16,2.64,.03,5.31,.03,8.15,5.45,.65,8.67,3.63,8.86,9.06,.16,4.53-2.39,6.91-8.86,8.95Z"/>
      </g>
      <g>
        <path class="cls-2" d="M143.45,134.41c0,12.38,0,24.77,0,37.15,0,6.03-1.88,7.94-7.84,7.95-10.73,0-21.45,0-32.18,0-5.76,0-7.78-2.03-7.79-7.8,0-24.77-.21-49.53,.12-74.3,.11-7.76,1.65-15.5,2.59-23.24,1.72-14.09,3.5-28.17,5.24-42.26,1.05-8.49,2.04-16.98,3.13-25.46C107.29,2.07,109.68,.06,114.12,.02c3.66-.03,7.32-.04,10.97,0,4.39,.05,6.68,1.95,7.23,6.28,1.76,13.83,3.43,27.68,5.14,41.52,1.9,15.41,3.81,30.81,5.7,46.22,.15,1.23,.26,2.48,.26,3.72,.02,12.22,.01,24.43,.01,36.65Zm-35.92-30.29s-.01,0-.02,0c0,2.99-.04,5.99,.01,8.98,.08,4.4,2.23,6.56,6.65,6.64,3.58,.06,7.15,.06,10.73,0,4.46-.07,6.6-2.14,6.66-6.58,.07-5.9,.11-11.81-.02-17.71-.16-6.97-5.1-11.7-11.96-11.72-6.86-.01-11.78,4.72-12.03,11.66-.1,2.91-.02,5.82-.02,8.73Z"/>
        <path class="cls-2" d="M47.73,131.56c0-3.93-.08-7.66,.02-11.39,.18-7.15,3.93-11.57,10.89-12.19,4.62-.41,9.33-.42,13.95-.01,7.16,.63,10.91,5.15,10.95,12.65,.06,11.14,.02,22.28,.02,33.43,0,8.23,.05,16.46-.02,24.69-.05,6.64-3.48,11.23-9.05,12.33-8.14,1.6-14.29-3.21-14.75-11.56-.06-1.16,0-2.32,0-3.72-10.92-3.24-21.79-6.45-32.8-9.72-.27,1.3-.47,2.5-.76,3.68-.96,4-4.5,6.77-8.54,6.7-4.1-.07-7.5-2.82-8.35-6.9-.3-1.45-.46-2.95-.46-4.43-.03-33.01-.02-66.02-.02-99.03,0-.99,0-1.99,0-3.19-.73-.21-1.41-.42-2.1-.59C1.7,61.09,.01,57.68,0,53.86c-.01-3.75,1.61-7.35,6.67-8.41,1.83-.38,2.18-1.14,2.17-2.82-.01-2.89,0-5.83,.47-8.67,.67-4.12,4.15-6.84,8.28-6.94,4.13-.1,7.71,2.7,8.58,6.92,.36,1.77,.39,3.62,.47,5.43,.07,1.74,.02,3.48,.02,5.49,5.39,.73,8.94,3.69,8.8,9.23-.13,5.17-3.47,8.05-8.69,8.62v68.84h20.97Z"/>
        <path class="cls-2" d="M230.29,62.93c0,1.04,0,2.03,0,3.02,0,33.25,0,66.49,0,99.74,0,3.79-.72,7.37-4.39,9.4-5.64,3.13-11.7,.34-13.05-5.9-.21-.96-.41-1.93-.66-3.15-10.91,3.23-21.77,6.44-32.58,9.63-.22,2.29-.29,4.45-.64,6.56-.89,5.37-5.61,9.13-11.4,9.22-5.65,.08-10.57-3.71-11.58-9.01-.26-1.38-.42-2.8-.42-4.2-.03-19.12-.03-38.23,0-57.35,0-6.43,2.63-10.59,7.77-12.31,1.32-.44,2.76-.71,4.15-.75,3.99-.1,7.99-.18,11.97,0,7.42,.33,11.71,4.81,11.91,12.3,.1,3.73,.02,7.47,.02,11.4h20.88V62.72c-5.14-.57-8.55-3.49-8.6-8.77-.05-5.4,3.38-8.39,8.8-9.02,0-2.88-.14-5.54,.03-8.18,.43-6.82,3.76-9.58,8.91-9.57,5.01,0,8.46,2.6,8.89,9.6,.16,2.64,.03,5.31,.03,8.15,5.45,.65,8.67,3.63,8.86,9.06,.16,4.53-2.39,6.91-8.86,8.95Z"/>
      </g>
    </g>
  </g>
</svg>